<svg width="81" height="51" viewBox="0 0 81 51" fill="none" xmlns="http://www.w3.org/2000/svg">
<path fill-rule="evenodd" clip-rule="evenodd" d="M34.0542 0C36.9913 0 38.1025 2.591 38.984 4.86143L46.7245 29.709L40.5286 30.0078L34.0648 9.25262L28.1019 28.7785L22.3461 27.1002L27.6188 9.97256C28.2422 8.26377 28.6969 6.07149 29.4209 4.19514C30.2322 2.09426 31.5049 0 34.0542 0V0ZM49.5603 38.81L53.3578 51H47.066L43.4631 39.4326L49.5603 38.81ZM25.4209 37.5589L21.3157 51H14.9888L19.7313 35.5951L25.4209 37.5589Z" fill="#283b4e"/>
<path fill-rule="evenodd" clip-rule="evenodd" d="M56.5788 27.7307V13.8922C56.508 7.49156 61.6635 1.28098 68.0936 1.2876L71.6058 1.29025H81.0624L81.0961 7.29286H68.6654C64.5092 7.29286 62.5218 10.7886 62.5218 14.2856V25.5868L56.5788 27.7307Z" fill="#283b4e"/>
<path fill-rule="evenodd" clip-rule="evenodd" d="M0.10144 14.8215C4.5329 20.7407 10.0769 25.055 16.5401 28.0434C24.3904 31.6716 32.1495 33.0175 40.7563 33.0671C47.5431 33.1055 54.6715 31.6796 61.0268 29.331C65.4358 27.7017 68.9758 25.5836 72.7606 22.8343C75.2557 21.0208 78.7196 17.3476 80.4813 14.7983C78.294 19.5849 74.0022 24.4212 69.6965 27.4069C65.0711 30.6172 61.4219 32.5201 56.0235 34.1944C51.1427 35.7098 46.692 36.2814 41.614 36.4887C35.9178 36.7218 30.0324 35.8383 24.5916 34.1566C20.7406 32.9665 16.9365 31.4338 13.2575 28.9766C7.41375 25.0736 3.41511 21.0255 0.10144 14.8215H0.10144Z" fill="#42C0E7"/>
<path fill-rule="evenodd" clip-rule="evenodd" d="M56.5953 50.9999H62.5344V34.8962L56.5953 37.1534V50.9999Z" fill="#283b4e"/>
</svg>
